<svg width="400" height="400" viewBox="0 0 400 400" fill="none" xmlns="http://www.w3.org/2000/svg">
  <!-- Background -->
  <rect width="400" height="400" fill="#f8f9fa"/>
  
  <!-- Clothing hanger icon -->
  <g transform="translate(150, 120)">
    <!-- Hanger hook -->
    <path d="M50 20 C50 15, 45 10, 40 10 C35 10, 30 15, 30 20 L30 30 L70 30 L70 20 C70 15, 65 10, 60 10 C55 10, 50 15, 50 20" 
          fill="#9ca3af" stroke="#6b7280" stroke-width="2"/>
    
    <!-- Hanger bar -->
    <path d="M10 50 L90 50 C95 50, 100 55, 100 60 C100 65, 95 70, 90 70 L10 70 C5 70, 0 65, 0 60 C0 55, 5 50, 10 50" 
          fill="#9ca3af" stroke="#6b7280" stroke-width="2"/>
    
    <!-- T-shirt outline -->
    <path d="M20 70 L20 90 L10 100 L10 140 L90 140 L90 100 L80 90 L80 70 L65 70 L65 80 L60 85 L40 85 L35 80 L35 70 Z" 
          fill="#e5e7eb" stroke="#9ca3af" stroke-width="2" stroke-dasharray="5,5"/>
  </g>
  
  <!-- Text -->
  <text x="200" y="280" text-anchor="middle" fill="#6b7280" font-family="system-ui, sans-serif" font-size="16" font-weight="500">
    No Image
  </text>
  <text x="200" y="300" text-anchor="middle" fill="#9ca3af" font-family="system-ui, sans-serif" font-size="14">
    Upload a photo
  </text>
</svg>